HIERARCHY
ROOT hip
{
  OFFSET 0 0 0
  CHANNELS 6 Xposition Yposition Zposition Zrotation Yrotation Xrotation
  JOINT abdomen
  {
    OFFSET 0 20.6881 -0.73152
    CHANNELS 3 Zrotation Xrotation Yrotation
    JOINT chest
    {
      OFFSET 0 11.7043 -0.48768
      CHANNELS 3 Zrotation Xrotation Yrotation
      JOINT neck
      {
        OFFSET 0 22.1894 -2.19456
        CHANNELS 3 Zrotation Xrotation Yrotation
        JOINT head
        {
          OFFSET -0.24384 7.07133 1.2192
          CHANNELS 3 Zrotation Xrotation Yrotation
          JOINT leftEye
          {
            OFFSET 4.14528 8.04674 8.04672
            CHANNELS 3 Zrotation Xrotation Yrotation
            End Site
            {
              OFFSET 1 0 0
            }
          }
          JOINT rightEye
          {
            OFFSET -3.6576 8.04674 8.04672
            CHANNELS 3 Zrotation Xrotation Yrotation
            End Site
            {
              OFFSET 1 0 0
            }
          }
        }
      }
      JOINT rCollar
      {
        OFFSET -2.68224 19.2634 -4.8768
        CHANNELS 3 Zrotation Xrotation Yrotation
        JOINT rShldr
        {
          OFFSET -8.77824 -1.95073 1.46304
          CHANNELS 3 Zrotation Xrotation Yrotation
          JOINT rForeArm
          {
            OFFSET -28.1742 -1.7115 0.48768
            CHANNELS 3 Zrotation Xrotation Yrotation
            JOINT rHand
            {
              OFFSET -22.5879 0.773209 7.07136
              CHANNELS 3 Zrotation Xrotation Yrotation
              JOINT rThumb1
              {
                OFFSET -1.2192 -0.487915 3.41376
                CHANNELS 3 Zrotation Xrotation Yrotation
                JOINT rThumb2
                {
                  OFFSET -3.37035 -0.52449 3.41376
                  CHANNELS 3 Zrotation Xrotation Yrotation
                  End Site
                  {
                    OFFSET -1.78271 -1.18214 1.43049
                  }
                }
              }
              JOINT rIndex1
              {
                OFFSET -7.75947 0.938293 5.60832
                CHANNELS 3 Zrotation Xrotation Yrotation
                JOINT rIndex2
                {
                  OFFSET -2.54057 -0.884171 1.56538
                  CHANNELS 3 Zrotation Xrotation Yrotation
                  End Site
                  {
                    OFFSET -1.62519 -0.234802 1.16502
                  }
                }
              }
              JOINT rMid1
              {
                OFFSET -8.24714 1.18213 3.41376
                CHANNELS 3 Zrotation Xrotation Yrotation
                JOINT rMid2
                {
                  OFFSET -3.10165 -0.590103 1.0647
                  CHANNELS 3 Zrotation Xrotation Yrotation
                  End Site
                  {
                    OFFSET -2.48547 -0.328903 0.83742
                  }
                }
              }
              JOINT rRing1
              {
                OFFSET -8.82822 0.546677 1.51678
                CHANNELS 3 Zrotation Xrotation Yrotation
                JOINT rRing2
                {
                  OFFSET -2.60934 -0.819778 -0.0198488
                  CHANNELS 3 Zrotation Xrotation Yrotation
                  End Site
                  {
                    OFFSET -2.33842 -0.294052 0.168128
                  }
                }
              }
              JOINT rPinky1
              {
                OFFSET -8.27202 -0.0477905 -0.4584
                CHANNELS 3 Zrotation Xrotation Yrotation
                JOINT rPinky2
                {
                  OFFSET -1.82734 -0.647385 -0.700984
                  CHANNELS 3 Zrotation Xrotation Yrotation
                  End Site
                  {
                    OFFSET -1.69225 -0.51767 -0.607171
                  }
                }
              }
            }
          }
        }
      }
      JOINT lCollar
      {
        OFFSET 2.68224 19.2634 -4.8768
        CHANNELS 3 Zrotation Xrotation Yrotation
        JOINT lShldr
        {
          OFFSET 8.77824 -1.95073 1.46304
          CHANNELS 3 Zrotation Xrotation Yrotation
          JOINT lForeArm
          {
            OFFSET 28.1742 -1.7115 0.48768
            CHANNELS 3 Zrotation Xrotation Yrotation
            JOINT lHand
            {
              OFFSET 22.5879 0.773209 7.07136
              CHANNELS 3 Zrotation Xrotation Yrotation
              JOINT lThumb1
              {
                OFFSET 1.2192 -0.487915 3.41376
                CHANNELS 3 Zrotation Xrotation Yrotation
                JOINT lThumb2
                {
                  OFFSET 3.37035 -0.52449 3.41376
                  CHANNELS 3 Zrotation Xrotation Yrotation
                  End Site
                  {
                    OFFSET 1.78271 -1.18214 1.43049
                  }
                }
              }
              JOINT lIndex1
              {
                OFFSET 7.75947 0.938293 5.60832
                CHANNELS 3 Zrotation Xrotation Yrotation
                JOINT lIndex2
                {
                  OFFSET 2.54057 -0.884171 1.56538
                  CHANNELS 3 Zrotation Xrotation Yrotation
                  End Site
                  {
                    OFFSET 1.62519 -0.234802 1.16502
                  }
                }
              }
              JOINT lMid1
              {
                OFFSET 8.24714 1.18213 3.41376
                CHANNELS 3 Zrotation Xrotation Yrotation
                JOINT lMid2
                {
                  OFFSET 3.10165 -0.590103 1.0647
                  CHANNELS 3 Zrotation Xrotation Yrotation
                  End Site
                  {
                    OFFSET 2.48547 -0.328903 0.83742
                  }
                }
              }
              JOINT lRing1
              {
                OFFSET 8.82822 0.546677 1.51678
                CHANNELS 3 Zrotation Xrotation Yrotation
                JOINT lRing2
                {
                  OFFSET 2.60934 -0.819778 -0.0198488
                  CHANNELS 3 Zrotation Xrotation Yrotation
                  End Site
                  {
                    OFFSET 2.33842 -0.294052 0.168128
                  }
                }
              }
              JOINT lPinky1
              {
                OFFSET 8.27202 -0.0477905 -0.4584
                CHANNELS 3 Zrotation Xrotation Yrotation
                JOINT lPinky2
                {
                  OFFSET 1.82734 -0.647385 -0.700984
                  CHANNELS 3 Zrotation Xrotation Yrotation
                  End Site
                  {
                    OFFSET 1.69225 -0.51767 -0.607171
                  }
                }
              }
            }
          }
        }
      }
    }
  }
  JOINT rButtock
  {
    OFFSET -8.77824 4.35084 1.2192
    CHANNELS 3 Zrotation Xrotation Yrotation
    JOINT rThigh
    {
      OFFSET 0 -1.70687 -2.19456
      CHANNELS 3 Zrotation Xrotation Yrotation
      JOINT rShin
      {
        OFFSET 0 -36.8199 0.73152
        CHANNELS 3 Zrotation Xrotation Yrotation
        JOINT rFoot
        {
          OFFSET 0.73152 -45.1104 -5.12064
          CHANNELS 3 Zrotation Xrotation Yrotation
          End Site
          {
            OFFSET -1.1221 -3.69964 12.103
          }
        }
      }
    }
  }
  JOINT lButtock
  {
    OFFSET 8.77824 4.35084 1.2192
    CHANNELS 3 Zrotation Xrotation Yrotation
    JOINT lThigh
    {
      OFFSET 0 -1.70687 -2.19456
      CHANNELS 3 Zrotation Xrotation Yrotation
      JOINT lShin
      {
        OFFSET 0 -36.8199 0.73152
        CHANNELS 3 Zrotation Xrotation Yrotation
        JOINT lFoot
        {
          OFFSET -0.73152 -45.1104 -5.12064
          CHANNELS 3 Zrotation Xrotation Yrotation
          End Site
          {
            OFFSET 1.1221 -3.69964 12.103
          }
        }
      }
    }
  }
}
MOTION
Frames:	4
Frame Time:	0.00833333
57.4237 -0.9433 134.8414 -171.294766 -7.281187 120.468633 -129.886462 44.977519 -59.428918 174.307498 -50.068417 -138.465172 -160.021847 -62.895623 -80.372856 59.823722 63.634023 -25.061223 -150.648058 -1.761706 -6.719533 -70.492095 -14.205206 20.000845 109.90278 44.33282 -9.99599 110.719092 -52.897622 -68.348772 -177.146873 -55.967246 3.106166 19.995107 31.02869 168.968902 26.024223 8.997694 -175.456137 120.723661 44.147343 -96.965856 157.460529 8.336049 -113.742333 -136.473499 -1.333875 -34.510135 11.875325 -2.663528 165.569643 164.841522 -22.769499 -141.838456 75.195368 26.698427 145.612968 -142.611165 -16.888174 -63.024422 -150.770565 0.504614 16.965758 141.315006 8.29432 117.432727 -28.768521 35.126225 -56.907451 177.444313 -0.84814 -88.264509 -48.363088 84.142407 -165.283106 -14.772614 39.270555 138.798282 173.946995 -20.683582 -117.271199 -73.619755 -69.055384 -177.186539 18.498635 -38.917975 125.052948 -10.313899 58.744098 177.591348 65.826271 0.002038 -155.179203 -84.097653 67.078062 -24.553852 -97.997103 47.301218 -93.934229 -2.549991 -22.415006 131.041981 38.943833 57.465857 137.879914 -163.452418 36.951889 -47.733281 164.919851 0.61364 90.30326 -164.928535 -11.661309 0.0 -110.066542 36.875521 -112.541575 -143.588608 25.975337 -86.482176 -9.747214 -3.98616 12.043257 -76.671506 -29.084713 -149.252568 132.600591 59.95496 32.035994 112.046254 -32.3121 59.892752
58.5891 -0.9587 137.4735 -172.232301 -8.119231 120.195349 -133.674435 45.249083 -0.0 -134.809191 -27.338086 -67.983346 -160.30027 -62.201722 -85.895078 54.929077 67.455768 -18.096604 -150.769485 -1.588835 -6.087637 -70.518511 -14.386579 20.243897 106.947187 7.31125 -17.381296 153.228082 -37.44793 -52.818716 -174.972812 8.124116 2.976929 19.291153 33.833545 168.122624 176.563035 -16.853345 -102.620686 45.457984 -3.367157 136.690066 -170.33095 13.781816 -109.912992 1.512669 78.307746 -151.739954 157.259235 74.786914 3.384554 -4.701647 -43.58514 74.968194 -110.247178 -83.540936 30.969538 122.367945 -5.931125 6.082116 175.499478 -61.212365 -28.769522 -13.119168 3.464732 151.060147 -7.035033 40.004166 -74.135779 109.903344 7.806937 -70.483743 179.882654 28.402326 -30.237733 -14.438309 41.487531 139.589605 -0.98763 -4.819183 27.507533 -121.054776 44.304388 134.557507 -170.989784 71.6678 126.878274 0.198481 7.222814 -174.250256 -93.14783 -1.862647 13.661441 -159.526734 -59.229722 123.529206 2.986742 -64.966814 -156.612422 80.152376 -33.804596 -72.422076 -151.613904 50.042553 -1.200184 -40.056541 -66.683711 152.687731 59.944786 0.139316 -89.919387 92.925668 -74.640042 -87.178663 101.098202 -41.847404 -25.984488 -71.414571 33.514423 -113.716668 -25.446801 -5.126651 0.0 -60.043984 -38.96179 -145.082239 132.311067 70.575322 143.047393 126.440237 -7.804945 107.992261
59.749399999999994 -0.9416000000000001 140.1258 -171.605504 -7.926402 120.431778 -136.472173 44.266883 73.041206 -131.514107 27.652804 -21.31301 -130.030525 -52.916059 166.852469 -60.06462 -18.394518 149.068182 -151.064806 -1.663041 -6.439205 -70.944794 -14.122329 19.722828 -51.392547 17.407054 176.360214 177.612934 2.846229 14.446219 -166.021584 81.405794 -49.461386 140.125418 -19.757305 -47.691 -165.129472 -4.156966 -96.735367 100.58351 -60.909074 -156.378628 -88.220792 27.205436 -116.584575 168.736287 -12.128299 -115.912318 10.341713 25.022823 160.795431 152.330474 -49.785395 -154.057106 55.266613 -13.127604 162.665202 -68.210762 28.598113 -107.986881 66.829564 29.484362 -165.397706 31.458288 20.249862 -128.47989 -54.089998 20.644486 -39.190455 -97.984654 -0.871695 -65.197245 161.375421 -2.038313 64.149239 -147.054284 -14.079181 -10.634729 168.823265 -2.779248 -116.63408 -171.768675 -26.269933 31.68228 118.893356 47.060901 178.395536 -171.853102 -10.075034 55.154237 -57.799659 67.126074 -25.813434 -166.594173 8.096932 105.669721 -64.651663 38.955152 -124.913023 -134.048688 9.963071 24.955959 31.465402 43.694707 139.338545 178.392846 -52.250133 -20.250555 60.420616 -0.028766 -90.016328 88.388859 -73.535406 -0.0 -99.563193 -48.075124 109.586752 144.127332 -3.429784 118.048196 -84.818498 24.814078 -48.867925 54.890069 -38.578557 42.518317 119.145136 -45.143188 160.09473 136.936382 -16.346199 90.771706
60.9058 -0.9089 142.7774 -169.906912 -7.188384 120.987402 -135.072216 43.861281 124.786304 -174.299799 54.970401 41.268414 -155.904255 -68.083349 -45.68019 70.923644 36.269685 -47.194545 -151.312557 -1.886858 -7.369401 -71.376551 -13.63541 18.9007 103.450276 -13.662734 -21.835834 125.381847 -52.332746 -82.220505 0.275795 -5.706861 141.641517 143.731822 -13.558873 -42.958236 -7.758893 33.783053 -167.016399 -99.565762 19.542131 -131.205374 -109.201545 24.398268 -112.737959 7.400653 36.148578 -141.575686 169.564093 -9.706172 -24.608996 161.51478 -55.253729 40.26857 -156.479146 -0.203103 22.037154 62.695405 0.405622 108.337953 -150.212628 0.625347 18.376858 103.233802 -2.773493 132.920534 -17.297212 37.797084 -66.667227 -79.575282 -6.372504 -100.13147 174.953724 11.22244 67.098343 -137.801735 -27.340931 0.15435 176.431238 -25.172176 -117.385977 -76.619021 27.535418 -107.436346 43.855616 -34.554073 145.983509 59.930662 78.274652 119.304537 -78.134235 50.608353 -5.470395 -168.657149 -9.678529 110.977904 -63.770762 39.705141 -126.341853 44.787665 25.715508 162.910927 100.7933 80.97171 89.425398 175.647691 -57.23186 -12.66174 165.790372 -0.897399 89.897218 -164.888568 -13.168271 95.149184 113.556902 44.491551 57.127387 141.25994 -74.853266 -171.609142 -81.65587 24.270524 -49.268924 52.500282 -38.841373 64.301428 162.916278 -70.660533 83.644349 -118.227618 -8.484236 -61.08141
